<?xml version="1.0" encoding="UTF-8" standalone="no"?>
<!-- Created with Inkscape (http://www.inkscape.org/) -->

<svg
   xmlns:dc="http://purl.org/dc/elements/1.1/"
   xmlns:cc="http://creativecommons.org/ns#"
   xmlns:rdf="http://www.w3.org/1999/02/22-rdf-syntax-ns#"
   xmlns:svg="http://www.w3.org/2000/svg"
   xmlns="http://www.w3.org/2000/svg"
   xmlns:sodipodi="http://sodipodi.sourceforge.net/DTD/sodipodi-0.dtd"
   xmlns:inkscape="http://www.inkscape.org/namespaces/inkscape"
   width="16"
   height="16"
   viewBox="0 0 4.2333332 4.2333332"
   version="1.1"
   id="svg8"
   inkscape:version="0.92.5 (2060ec1f9f, 2020-04-08)"
   sodipodi:docname="connection-properties_light.svg">
  <defs
     id="defs2" />
  <sodipodi:namedview
     id="base"
     pagecolor="#ffffff"
     bordercolor="#666666"
     borderopacity="1.0"
     inkscape:pageopacity="0.0"
     inkscape:pageshadow="2"
     inkscape:zoom="31.678384"
     inkscape:cx="9.6212622"
     inkscape:cy="8.2542823"
     inkscape:document-units="mm"
     inkscape:current-layer="layer1"
     showgrid="true"
     units="px"
     inkscape:window-width="1920"
     inkscape:window-height="999"
     inkscape:window-x="0"
     inkscape:window-y="0"
     inkscape:window-maximized="1">
    <inkscape:grid
       type="xygrid"
       id="grid815"
       spacingx="0.13229166"
       spacingy="0.13229166" />
  </sodipodi:namedview>
  <metadata
     id="metadata5">
    <rdf:RDF>
      <cc:Work
         rdf:about="">
        <dc:format>image/svg+xml</dc:format>
        <dc:type
           rdf:resource="http://purl.org/dc/dcmitype/StillImage" />
        <dc:title></dc:title>
      </cc:Work>
    </rdf:RDF>
  </metadata>
  <g
     inkscape:label="Layer 1"
     inkscape:groupmode="layer"
     id="layer1"
     transform="translate(0,-292.76667)">
    <path
       style="fill:none;fill-rule:evenodd;stroke:none;stroke-width:0.06614583"
       d="M -0.00272437,292.77252 H 4.2306087 v 4.23333 h -4.23333307 z"
       id="rect839"
       inkscape:connector-curvature="0" />
    <path
       style="fill:#6e6e6e;fill-opacity:1;fill-rule:evenodd;stroke:none;stroke-width:0.24999999"
       d="M 7.9453125 1.0195312 C 5.2955625 1.0195312 3.0051407 2.5475092 1.9003906 4.7695312 L 9.4863281 4.7695312 L 11.710938 2.1757812 C 10.634638 1.4495828 9.3413823 1.0195312 7.9453125 1.0195312 z M 12.583984 4.1523438 C 11.578118 4.1455229 10.574392 4.5622276 9.8808594 5.3710938 C 8.9987014 6.3994276 8.8608459 7.7804166 9.4082031 8.9042969 L 4.7871094 14.291016 L 7.0371094 16.076172 L 11.658203 10.689453 C 12.909492 10.991437 14.29377 10.599327 15.175781 9.5703125 C 16.100698 8.492429 16.207635 7.025526 15.564453 5.875 L 13.300781 8.5136719 L 11.314453 6.9394531 L 13.578125 4.3007812 C 13.253753 4.2033734 12.919273 4.1546174 12.583984 4.1523438 z M 1.4277344 6.0195312 C 1.2782344 6.5777675 1.1972656 7.1640509 1.1972656 7.7695312 C 1.1972656 8.3750494 1.2782348 8.961295 1.4277344 9.5195312 L 5.4140625 9.5195312 L 8.4140625 6.0195312 L 1.4277344 6.0195312 z M 1.9003906 10.769531 C 2.1876956 11.347383 2.5667997 11.865423 3.0039062 12.330078 L 4.3417969 10.769531 L 1.9003906 10.769531 z "
       transform="matrix(0.26458333,0,0,0.26458333,0,292.76667)"
       id="path841" />
  </g>
</svg>
