<?xml version="1.0" encoding="UTF-8" standalone="no"?>
<svg
   xmlns:dc="http://purl.org/dc/elements/1.1/"
   xmlns:cc="http://creativecommons.org/ns#"
   xmlns:rdf="http://www.w3.org/1999/02/22-rdf-syntax-ns#"
   xmlns:svg="http://www.w3.org/2000/svg"
   xmlns="http://www.w3.org/2000/svg"
   xmlns:sodipodi="http://sodipodi.sourceforge.net/DTD/sodipodi-0.dtd"
   xmlns:inkscape="http://www.inkscape.org/namespaces/inkscape"
   id="svg105"
   version="1.1"
   viewBox="0 0 4.2333329 4.2333335"
   height="16"
   width="15.999999"
   sodipodi:docname="connection-properties.svg"
   inkscape:version="0.92.5 (2060ec1f9f, 2020-04-08)">
  <metadata
     id="metadata21">
    <rdf:RDF>
      <cc:Work
         rdf:about="">
        <dc:format>image/svg+xml</dc:format>
        <dc:type
           rdf:resource="http://purl.org/dc/dcmitype/StillImage" />
        <dc:title></dc:title>
      </cc:Work>
    </rdf:RDF>
  </metadata>
  <sodipodi:namedview
     pagecolor="#ffffff"
     bordercolor="#666666"
     borderopacity="1"
     objecttolerance="10"
     gridtolerance="10"
     guidetolerance="10"
     inkscape:pageopacity="0"
     inkscape:pageshadow="2"
     inkscape:window-width="1920"
     inkscape:window-height="972"
     id="namedview19"
     showgrid="true"
     inkscape:zoom="22.627417"
     inkscape:cx="18.005165"
     inkscape:cy="4.4848145"
     inkscape:window-x="0"
     inkscape:window-y="27"
     inkscape:window-maximized="1"
     inkscape:current-layer="svg105"
     inkscape:snap-global="false">
    <inkscape:grid
       type="xygrid"
       id="grid23" />
  </sodipodi:namedview>
  <defs
     id="defs99" />
  <path
     style="fill:none;fill-rule:evenodd;stroke:none;stroke-width:0.06614583"
     d="M 0,0 H 4.2333331 V 4.23333 H 0 Z"
     id="rect839"
     inkscape:connector-curvature="0" />
  <path
     style="fill:#afb1b3;fill-opacity:1;fill-rule:evenodd;stroke:none;stroke-width:0.24999999"
     d="M 7.9550781 0.99804688 C 5.3053281 0.99804688 3.0149063 2.5260248 1.9101562 4.7480469 L 9.4960938 4.7480469 L 11.720703 2.1542969 C 10.644404 1.4281111 9.3511479 0.99804687 7.9550781 0.99804688 z "
     transform="scale(0.26458333)"
     id="path841" />
  <path
     style="fill:#afb1b3;fill-opacity:1;fill-rule:evenodd;stroke:none;stroke-width:0.24999999"
     d="M 1.4375 5.9980469 C 1.288 6.5562831 1.2070312 7.1425666 1.2070312 7.7480469 C 1.2070312 8.353565 1.288 8.9398107 1.4375 9.4980469 L 5.4238281 9.4980469 L 8.4238281 5.9980469 L 1.4375 5.9980469 z "
     transform="scale(0.26458333)"
     id="path843" />
  <path
     style="fill:#afb1b3;fill-opacity:1;fill-rule:evenodd;stroke:none;stroke-width:0.24999999"
     d="M 1.9101562 10.748047 C 2.1974611 11.325902 2.5765653 11.843936 3.0136719 12.308594 L 4.3515625 10.748047 L 1.9101562 10.748047 z "
     transform="scale(0.26458333)"
     id="path845" />
  <path
     id="path3831"
     d="M 2.4917881,2.3498776 C 2.3469665,2.052519 2.3836219,1.687115 2.6170262,1.4150298 2.861689,1.1296811 3.2522303,1.0290223 3.5955242,1.1321068 L 2.9964985,1.8302967 3.5217988,2.2469771 4.120822,1.5487729 C 4.2909972,1.8531814 4.2625704,2.2410179 4.0178528,2.5262126 3.7844872,2.7984689 3.4182637,2.9022759 3.0871934,2.822379 L 1.8644464,4.2477054 1.269113,3.7755034 Z"
     style="fill:#afb1b3;fill-rule:evenodd;stroke-width:0.22360058"
     inkscape:connector-curvature="0" />
</svg>
