<?xml version="1.0" encoding="UTF-8" standalone="no"?>
<svg
   xmlns:dc="http://purl.org/dc/elements/1.1/"
   xmlns:cc="http://creativecommons.org/ns#"
   xmlns:rdf="http://www.w3.org/1999/02/22-rdf-syntax-ns#"
   xmlns:svg="http://www.w3.org/2000/svg"
   xmlns="http://www.w3.org/2000/svg"
   id="svg8"
   version="1.1"
   viewBox="0 0 4.2333331 4.2333331"
   height="4.2333331mm"
   width="4.2333331mm">
  <defs
     id="defs2" />
  <metadata
     id="metadata5">
    <rdf:RDF>
      <cc:Work
         rdf:about="">
        <dc:format>image/svg+xml</dc:format>
        <dc:type
           rdf:resource="http://purl.org/dc/dcmitype/StillImage" />
        <dc:title></dc:title>
      </cc:Work>
    </rdf:RDF>
  </metadata>
  <g
     transform="translate(-97.335289,-158.7785)"
     id="layer1">
    <g
       style="fill:none;fill-rule:evenodd;stroke:none;stroke-width:1"
       transform="matrix(0.06614583,0,0,0.06614583,97.335289,158.7785)"
       id="g849">
      <rect
         id="rect839"
         x="0"
         y="0"
         width="64"
         height="64" />
      <g
         id="g847"
         transform="translate(8,4.9995)">
        <path
           style="fill:#828d94;fill-opacity:1"
           d="m 47.7246,9.708 0.003,-0.006 C 42.7746,3.774 35.3286,0 26.9996,0 16.4006,0 7.2326,6.112 2.8136,15 h 35.192 c 2.525,0 4.983,-0.87 6.915,-2.496 1.004,-0.845 1.943,-1.765 2.804,-2.796"
           id="path841" />
        <path
           style="fill:#828d94;fill-opacity:1"
           d="m 0,27.0005 c 0,2.422 0.324,4.767 0.922,7 H 34 c 3.866,0 7,-3.134 7,-7 0,-3.866 -3.134,-7 -7,-7 H 0.922 C 0.324,22.2335 0,24.5785 0,27.0005"
           id="path843" />
        <path
           style="fill:#828d94;fill-opacity:1"
           d="m 47.7246,44.293 0.003,0.006 c -4.953,5.928 -12.399,9.702 -20.728,9.702 -10.599,0 -19.767,-6.112 -24.186,-15 h 35.192 c 2.525,0 4.983,0.87 6.915,2.496 1.004,0.845 1.943,1.765 2.804,2.796"
           id="path845" />
      </g>
    </g>
  </g>
</svg>
