<?xml version="1.0" encoding="UTF-8" standalone="no"?>
<svg
   xmlns:dc="http://purl.org/dc/elements/1.1/"
   xmlns:cc="http://creativecommons.org/ns#"
   xmlns:rdf="http://www.w3.org/1999/02/22-rdf-syntax-ns#"
   xmlns:svg="http://www.w3.org/2000/svg"
   xmlns="http://www.w3.org/2000/svg"
   xmlns:sodipodi="http://sodipodi.sourceforge.net/DTD/sodipodi-0.dtd"
   xmlns:inkscape="http://www.inkscape.org/namespaces/inkscape"
   id="svg8"
   version="1.1"
   viewBox="0 0 4.2333329 4.2333332"
   height="15.999999"
   width="15.999999"
   sodipodi:docname="elasticsearch-icon-grey-error-16px.svg"
   inkscape:version="0.92.5 (2060ec1f9f, 2020-04-08)">
  <sodipodi:namedview
     pagecolor="#ffffff"
     bordercolor="#666666"
     borderopacity="1"
     objecttolerance="10"
     gridtolerance="10"
     guidetolerance="10"
     inkscape:pageopacity="0"
     inkscape:pageshadow="2"
     inkscape:window-width="1920"
     inkscape:window-height="972"
     id="namedview826"
     showgrid="true"
     inkscape:zoom="24.812501"
     inkscape:cx="0.96609594"
     inkscape:cy="1.3123602"
     inkscape:window-x="1920"
     inkscape:window-y="27"
     inkscape:window-maximized="1"
     inkscape:current-layer="svg8"
     inkscape:snap-global="false">
    <inkscape:grid
       type="xygrid"
       id="grid828"
       spacingx="0.13229167"
       spacingy="0.13229167" />
  </sodipodi:namedview>
  <defs
     id="defs2" />
  <metadata
     id="metadata5">
    <rdf:RDF>
      <cc:Work
         rdf:about="">
        <dc:format>image/svg+xml</dc:format>
        <dc:type
           rdf:resource="http://purl.org/dc/dcmitype/StillImage" />
        <dc:title />
      </cc:Work>
    </rdf:RDF>
  </metadata>
  <rect
     style="fill:none;fill-rule:evenodd;stroke:none;stroke-width:0.06614583"
     height="4.2333331"
     width="4.2333331"
     y="1.2080078e-05"
     x="7.3204038e-09"
     id="rect839" />
  <path
     inkscape:connector-curvature="0"
     style="fill:#828d94;fill-opacity:1;fill-rule:evenodd;stroke:none;stroke-width:0.06614583"
     d="m 3.6859499,0.97284 1.985e-4,-3.9e-4 C 3.3585281,0.58033 2.8660062,0.3307 2.3150776,0.3307 1.6139979,0.3307 1.007573,0.73498 0.7152745,1.32289 h 2.3278041 c 0.1670182,0 0.3296047,-0.0575 0.4573984,-0.1651 0.06641,-0.0559 0.1285214,-0.11675 0.1854729,-0.18495"
     id="path841" />
  <path
     style="fill:#828d94;fill-opacity:1;fill-rule:evenodd;stroke:none;stroke-width:0.24999999"
     d="M 2.2304688 6.25 C 2.0809688 6.8082362 2 7.3945197 2 8 C 2 8.6055181 2.0809688 9.1917638 2.2304688 9.75 L 6.984375 9.75 A 4.6295258 4.643775 0 0 1 11.349609 6.6328125 A 4.6295258 4.643775 0 0 1 11.595703 6.6445312 C 11.29511 6.4012053 10.916862 6.25 10.5 6.25 L 2.2304688 6.25 z "
     transform="scale(0.26458333)"
     id="path843" />
  <path
     style="fill:#828d94;fill-opacity:1;fill-rule:evenodd;stroke:none;stroke-width:0.24999999"
     d="M 2.703125 11 C 3.736193 13.077845 5.8129573 14.530753 8.2441406 14.712891 A 4.6295258 4.643775 0 0 1 6.7207031 11.275391 A 4.6295258 4.643775 0 0 1 6.734375 11 L 2.703125 11 z "
     transform="scale(0.26458333)"
     id="path845" />
  <g
     id="g851"
     transform="matrix(0.96336486,0,0,0.96336486,0.04509171,0.00748377)">
    <circle
       style="opacity:0.869;fill:#ae4e4e;fill-opacity:1;stroke:#666666;stroke-width:0.00032669;stroke-linecap:round;stroke-linejoin:miter;stroke-miterlimit:4;stroke-dasharray:none;stroke-dashoffset:0;stroke-opacity:1;paint-order:stroke fill markers"
       id="circle852"
       cx="3.0831771"
       cy="3.0857034"
       r="1.1434225" />
    <path
       id="path860"
       d="M 2.9061238,2.2587965 V 3.2815754 H 3.232816 V 2.2587965 Z"
       style="fill:#3a3d3f;fill-opacity:1;stroke:none;stroke-width:0.30897731px;stroke-linecap:butt;stroke-linejoin:miter;stroke-opacity:1"
       inkscape:connector-curvature="0" />
    <path
       id="path862"
       d="M 2.9061238,3.565561 V 3.8922614 H 3.232816 V 3.565561 Z"
       style="fill:#3a3d3f;fill-opacity:1;stroke:none;stroke-width:0.32669213px;stroke-linecap:butt;stroke-linejoin:miter;stroke-opacity:1"
       inkscape:connector-curvature="0" />
  </g>
</svg>
