<?xml version="1.0" encoding="UTF-8" standalone="no"?>
<svg
   xmlns:dc="http://purl.org/dc/elements/1.1/"
   xmlns:cc="http://creativecommons.org/ns#"
   xmlns:rdf="http://www.w3.org/1999/02/22-rdf-syntax-ns#"
   xmlns:svg="http://www.w3.org/2000/svg"
   xmlns="http://www.w3.org/2000/svg"
   xmlns:sodipodi="http://sodipodi.sourceforge.net/DTD/sodipodi-0.dtd"
   xmlns:inkscape="http://www.inkscape.org/namespaces/inkscape"
   id="svg8"
   version="1.1"
   viewBox="0 0 4.2333329 4.2333332"
   height="15.999999"
   width="15.999999"
   sodipodi:docname="elasticsearch-icon-grey-error-16px.svg"
   inkscape:version="0.92.5 (2060ec1f9f, 2020-04-08)">
  <sodipodi:namedview
     pagecolor="#ffffff"
     bordercolor="#666666"
     borderopacity="1"
     objecttolerance="10"
     gridtolerance="10"
     guidetolerance="10"
     inkscape:pageopacity="0"
     inkscape:pageshadow="2"
     inkscape:window-width="1920"
     inkscape:window-height="972"
     id="namedview826"
     showgrid="true"
     inkscape:zoom="35.090176"
     inkscape:cx="6.5192042"
     inkscape:cy="6.913256"
     inkscape:window-x="1920"
     inkscape:window-y="27"
     inkscape:window-maximized="1"
     inkscape:current-layer="svg8">
    <inkscape:grid
       type="xygrid"
       id="grid828"
       spacingx="0.13229167"
       spacingy="0.13229167" />
  </sodipodi:namedview>
  <defs
     id="defs2" />
  <metadata
     id="metadata5">
    <rdf:RDF>
      <cc:Work
         rdf:about="">
        <dc:format>image/svg+xml</dc:format>
        <dc:type
           rdf:resource="http://purl.org/dc/dcmitype/StillImage" />
        <dc:title></dc:title>
      </cc:Work>
    </rdf:RDF>
  </metadata>
  <rect
     style="fill:none;fill-rule:evenodd;stroke:none;stroke-width:0.06614583"
     height="4.2333331"
     width="4.2333331"
     y="1.2080078e-05"
     x="7.3204038e-09"
     id="rect839" />
  <path
     inkscape:connector-curvature="0"
     style="fill:#828d94;fill-opacity:1;fill-rule:evenodd;stroke:none;stroke-width:0.06614583"
     d="m 3.6859499,0.97284 1.985e-4,-3.9e-4 C 3.3585281,0.58033 2.8660062,0.3307 2.3150776,0.3307 1.6139979,0.3307 1.007573,0.73498 0.7152745,1.32289 h 2.3278041 c 0.1670182,0 0.3296047,-0.0575 0.4573984,-0.1651 0.06641,-0.0559 0.1285214,-0.11675 0.1854729,-0.18495"
     id="path841" />
  <path
     inkscape:connector-curvature="0"
     style="fill:#828d94;fill-opacity:1;fill-rule:evenodd;stroke:none;stroke-width:0.06614583"
     d="m 0.59014486,1.6536458 c -0.0395552,0.1477 -0.0609782,0.3028208 -0.0609782,0.4630208 0,0.16021 0.021423,0.3153209 0.0609782,0.4630209 H 2.479952 a 0.92604165,0.92604165 0 0 1 0.7012493,-0.322461 0.92604165,0.92604165 0 0 1 0.035656,0.00155 c 0.014576,-0.044989 0.024288,-0.092265 0.024288,-0.1421104 0,-0.25572 -0.207301,-0.4630208 -0.4630208,-0.4630208 z"
     id="path843" />
  <path
     inkscape:connector-curvature="0"
     style="fill:#828d94;fill-opacity:1;fill-rule:evenodd;stroke:none;stroke-width:0.06614583"
     d="m 0.71520181,2.9104166 c 0.29229849,0.58791 0.89882269,0.9921875 1.59990229,0.9921875 0.088199,0 0.174131,-0.00832 0.258899,-0.020672 A 0.92604165,0.92604165 0 0 1 2.2551595,3.1832682 0.92604165,0.92604165 0 0 1 2.2965006,2.9104166 Z"
     id="path845" />
  <g
     id="g840"
     transform="matrix(0.77883909,0,0,0.77883909,0.86735626,0.89297198)">
    <circle
       style="opacity:0.869;fill:#c7222d;fill-opacity:0.99516913;stroke:#666666;stroke-width:0.00026458;stroke-linecap:round;stroke-linejoin:miter;stroke-miterlimit:4;stroke-dasharray:none;stroke-dashoffset:0;stroke-opacity:1;paint-order:stroke fill markers"
       id="circle852"
       cx="3.1814523"
       cy="3.1832702"
       r="0.92604166" />
    <path
       id="path860"
       d="M 3.0380593,2.51357 V 3.43961 H 3.3026426 V 2.51357 Z"
       style="fill:#000000;fill-opacity:0.89855077;stroke:none;stroke-width:0.26458332px;stroke-linecap:butt;stroke-linejoin:miter;stroke-opacity:1"
       inkscape:connector-curvature="0" />
    <path
       id="path862"
       d="M 3.0380593,3.5719 V 3.83649 H 3.3026426 V 3.5719 Z"
       style="fill:#000000;fill-opacity:0.80193242;stroke:none;stroke-width:0.26458332px;stroke-linecap:butt;stroke-linejoin:miter;stroke-opacity:1"
       inkscape:connector-curvature="0" />
  </g>
</svg>
