<?xml version="1.0" encoding="UTF-8" standalone="no"?>
<!-- Created with Inkscape (http://www.inkscape.org/) -->

<svg
   xmlns:dc="http://purl.org/dc/elements/1.1/"
   xmlns:cc="http://creativecommons.org/ns#"
   xmlns:rdf="http://www.w3.org/1999/02/22-rdf-syntax-ns#"
   xmlns:svg="http://www.w3.org/2000/svg"
   xmlns="http://www.w3.org/2000/svg"
   xmlns:sodipodi="http://sodipodi.sourceforge.net/DTD/sodipodi-0.dtd"
   xmlns:inkscape="http://www.inkscape.org/namespaces/inkscape"
   width="18px"
   height="18px"
   viewBox="0 0 4.2333516 3.534739"
   version="1.1"
   id="svg4554"
   inkscape:version="0.92.5 (2060ec1f9f, 2020-04-08)"
   sodipodi:docname="es-alias-16px.svg">
  <defs
     id="defs4548" />
  <sodipodi:namedview
     id="base"
     pagecolor="#ffffff"
     bordercolor="#666666"
     borderopacity="1.0"
     inkscape:pageopacity="0.0"
     inkscape:pageshadow="2"
     inkscape:zoom="2.9981327"
     inkscape:cx="-123.80541"
     inkscape:cy="40.553942"
     inkscape:document-units="mm"
     inkscape:current-layer="layer1"
     showgrid="false"
     inkscape:window-width="1920"
     inkscape:window-height="972"
     inkscape:window-x="0"
     inkscape:window-y="27"
     inkscape:window-maximized="1" />
  <metadata
     id="metadata4551">
    <rdf:RDF>
      <cc:Work
         rdf:about="">
        <dc:format>image/svg+xml</dc:format>
        <dc:type
           rdf:resource="http://purl.org/dc/dcmitype/StillImage" />
        <dc:title></dc:title>
      </cc:Work>
    </rdf:RDF>
  </metadata>
  <g
     inkscape:label="Layer 1"
     inkscape:groupmode="layer"
     id="layer1"
     transform="translate(-33.412272,-159.52196)">
    <path
       id="path1884"
       style="opacity:0.97000002;fill:#2a7fff;fill-opacity:1;stroke:none;stroke-width:0.31685302;stroke-linecap:round;stroke-linejoin:miter;stroke-miterlimit:4;stroke-dasharray:none;stroke-dashoffset:0;stroke-opacity:1;paint-order:stroke fill markers"
       d="m 35.404207,159.6997 1.289772,1.29213 c 0.168886,0.16919 0.17151,0.44418 0.0059,0.61657 l -1.265619,1.31728 c -0.165626,0.17238 -0.434923,0.17495 -0.603808,0.006 l -1.289774,-1.29213 c -0.168884,-0.1692 -0.17151,-0.44419 -0.0059,-0.61657 l 1.265619,-1.31728 c 0.165626,-0.17239 0.434924,-0.17496 0.60381,-0.006 z m 1.411521,0.0191 -10e-7,1.60701 c 2e-6,0.082 -0.06599,0.14796 -0.147957,0.14797 l -1.607001,1e-5 c -0.08197,-1e-5 -0.147964,-0.066 -0.147965,-0.14797 l 10e-7,-1.60701 c -10e-7,-0.082 0.06599,-0.14795 0.147954,-0.14797 h 1.606999 c 0.08197,0 0.147966,0.066 0.147967,0.14796 z"
       inkscape:connector-curvature="0" />
    <circle
       style="opacity:0.97000002;fill:#7db1fd;fill-opacity:1;stroke:none;stroke-width:0.30303055;stroke-linecap:round;stroke-linejoin:miter;stroke-miterlimit:4;stroke-dasharray:none;stroke-dashoffset:0;stroke-opacity:1;paint-order:stroke fill markers"
       id="circle1888"
       cx="36.187569"
       cy="160.16483"
       r="0.28501973" />
    <rect
       ry="0.22393321"
       y="92.92556"
       x="137.01456"
       height="0.44786641"
       width="0.69642681"
       id="rect1890"
       style="opacity:0.97000002;fill:#aaccff;fill-opacity:1;stroke:none;stroke-width:0.13515574;stroke-linecap:round;stroke-linejoin:miter;stroke-miterlimit:4;stroke-dasharray:none;stroke-dashoffset:0;stroke-opacity:1;paint-order:stroke fill markers"
       transform="rotate(43.655177)" />
    <rect
       style="opacity:0.97000002;fill:#aaccff;fill-opacity:1;stroke:none;stroke-width:0.14861129;stroke-linecap:round;stroke-linejoin:miter;stroke-miterlimit:4;stroke-dasharray:none;stroke-dashoffset:0;stroke-opacity:1;paint-order:stroke fill markers"
       id="rect1892"
       width="0.99508637"
       height="0.37896389"
       x="135.757"
       y="92.99041"
       ry="0.014555568"
       transform="rotate(43.655177)" />
    <path
       inkscape:connector-curvature="0"
       id="path1894"
       d="m 36.950418,159.52196 c 0.06068,0.0184 0.105552,0.0726 0.105554,0.1395 v 1.51591 c 0.02048,0.13158 -0.01719,0.27084 -0.11596,0.37364 l -1.265648,1.31718 c -0.06381,0.0664 -0.143052,0.10702 -0.225973,0.1229 0.14363,0.0393 0.302609,0.003 0.414531,-0.11422 l 1.265649,-1.31743 c 0.0982,-0.10221 0.135637,-0.24026 0.115959,-0.37118 v -1.51837 c -10e-7,-0.082 -0.06619,-0.14793 -0.148171,-0.14793 z"
       style="opacity:0.97000002;fill:#2a80ff;fill-opacity:0.97254902;stroke:none;stroke-width:0.31685302;stroke-linecap:round;stroke-linejoin:miter;stroke-miterlimit:4;stroke-dasharray:none;stroke-dashoffset:0;stroke-opacity:1;paint-order:stroke fill markers" />
    <path
       style="opacity:0.97000002;fill:#2a80ff;fill-opacity:0.97254902;stroke:none;stroke-width:0.31685302;stroke-linecap:round;stroke-linejoin:miter;stroke-miterlimit:4;stroke-dasharray:none;stroke-dashoffset:0;stroke-opacity:1;paint-order:stroke fill markers"
       d="m 37.346447,159.56664 c 0.06067,0.0184 0.105552,0.0726 0.105553,0.1395 v 1.5159 c 0.02048,0.13158 -0.01719,0.27084 -0.11596,0.37365 l -1.265647,1.31718 c -0.06381,0.0664 -0.143052,0.10701 -0.225973,0.1229 0.14363,0.0393 0.302608,0.003 0.41453,-0.11423 l 1.265649,-1.31743 c 0.0982,-0.10221 0.135637,-0.24026 0.115959,-0.37117 v -1.51838 c -10e-7,-0.082 -0.06619,-0.14792 -0.14817,-0.14792 z"
       id="path1896"
       inkscape:connector-curvature="0" />
  </g>
</svg>
