<?xml version="1.0" encoding="UTF-8" standalone="no"?>
<svg xmlns="http://www.w3.org/2000/svg"
   id="svg8"
   version="1.1"
   viewBox="0 0 4.2333329 4.2333329"
   height="15.999999"
   width="15.999999">
  <defs
     id="defs2" />
  <g
     transform="translate(-0.40345907,-292.78479)"
     id="layer1">
    <path
       id="path841"
       d="m 2.7185632,293.11552 c -0.7010797,0 -1.3076039,0.40429 -1.5999023,0.99219 h 2.3280232 c 0.1670182,0 0.3295428,-0.0578 0.4573365,-0.16537 0.06641,-0.0559 0.1285669,-0.11628 0.1855184,-0.18448 v -5.2e-4 c -0.3276203,-0.39211 -0.8200472,-0.64182 -1.3709758,-0.64182 z m 0.3255615,1.23713 v 1.05834 H 1.9857914 v 0.52916 h 1.0583333 v 1.05834 h 0.5291668 v -1.05834 h 1.0583333 v -0.52916 H 3.5732915 v -1.05834 z m -2.05052077,0.0858 c -0.0395552,0.14771 -0.0609782,0.30282 -0.0609782,0.46302 0,0.16021 0.0214231,0.31532 0.0609782,0.46302 H 1.5889164 v -0.007 l 0.2578654,-0.15658 v -5.2e-4 l 0.0894,-0.0543 h 0.010852 l 0.038757,-0.0233 v -0.007 l 0.042891,-0.0258 0.040824,-0.0248 0.3023071,-0.18397 h 0.010852 v -0.44338 z m 0.12505697,1.25677 c 0.2442167,0.4912 0.7092073,0.85039 1.2640055,0.95653 v -0.18242 h -0.0031 c 0,0 -0.1936548,-0.0856 -0.3937744,-0.24443 v -0.002 c -0.00745,-0.006 -0.014765,-0.0119 -0.022221,-0.0181 h -0.0031 c -0.1519394,-0.12532 -0.3024421,-0.29202 -0.3715535,-0.5023 v -0.007 h -0.0031 z"
       style="fill:#6e6e6e;fill-opacity:1;fill-rule:evenodd;stroke:none;stroke-width:0.06614583" />
  </g>
</svg>
