<?xml version="1.0" encoding="UTF-8" standalone="no"?>
<!-- Created with Inkscape (http://www.inkscape.org/) -->

<svg
   xmlns:dc="http://purl.org/dc/elements/1.1/"
   xmlns:cc="http://creativecommons.org/ns#"
   xmlns:rdf="http://www.w3.org/1999/02/22-rdf-syntax-ns#"
   xmlns:svg="http://www.w3.org/2000/svg"
   xmlns="http://www.w3.org/2000/svg"
   xmlns:sodipodi="http://sodipodi.sourceforge.net/DTD/sodipodi-0.dtd"
   xmlns:inkscape="http://www.inkscape.org/namespaces/inkscape"
   width="15.999999"
   height="15.999999"
   viewBox="0 0 4.2333329 4.2333332"
   version="1.1"
   id="svg8"
   inkscape:version="0.92.5 (2060ec1f9f, 2020-04-08)"
   sodipodi:docname="new-connection.svg">
  <defs
     id="defs2" />
  <sodipodi:namedview
     id="base"
     pagecolor="#ffffff"
     bordercolor="#666666"
     borderopacity="1.0"
     inkscape:pageopacity="0.0"
     inkscape:pageshadow="2"
     inkscape:zoom="32"
     inkscape:cx="7.2598961"
     inkscape:cy="9.8093444"
     inkscape:document-units="mm"
     inkscape:current-layer="layer1"
     showgrid="true"
     units="px"
     inkscape:window-width="1920"
     inkscape:window-height="999"
     inkscape:window-x="0"
     inkscape:window-y="0"
     inkscape:window-maximized="1"
     inkscape:snap-global="true"
     inkscape:snap-bbox="true"
     inkscape:snap-grids="false">
    <inkscape:grid
       type="xygrid"
       id="grid10"
       spacingx="0.13229167"
       spacingy="0.13229167"
       originx="-0.005193"
       originy="0.019421555" />
  </sodipodi:namedview>
  <metadata
     id="metadata5">
    <rdf:RDF>
      <cc:Work
         rdf:about="">
        <dc:format>image/svg+xml</dc:format>
        <dc:type
           rdf:resource="http://purl.org/dc/dcmitype/StillImage" />
        <dc:title></dc:title>
      </cc:Work>
    </rdf:RDF>
  </metadata>
  <g
     inkscape:label="Layer 1"
     inkscape:groupmode="layer"
     id="layer1"
     transform="translate(-0.005193,-292.78607)">
    <rect
       style="fill:none;fill-rule:evenodd;stroke:none;stroke-width:0.06614583"
       height="4.2333331"
       width="4.2333331"
       y="292.78607"
       x="0.0051930002"
       id="rect839" />
    <path
       style="fill:#afb1b3;fill-opacity:1;fill-rule:evenodd;stroke:none;stroke-width:0.24999999"
       d="M 8.75 1.25 C 6.10025 1.25 3.807875 2.7780157 2.703125 5 L 11.501953 5 C 12.133203 5 12.747469 4.7816772 13.230469 4.375 C 13.481467 4.1637244 13.716391 3.9354982 13.931641 3.6777344 L 13.931641 3.6757812 C 12.693391 2.1937908 10.83225 1.25 8.75 1.25 z M 9.9804688 5.9257812 L 9.9804688 9.9257812 L 5.9804688 9.9257812 L 5.9804688 11.925781 L 9.9804688 11.925781 L 9.9804688 15.925781 L 11.980469 15.925781 L 11.980469 11.925781 L 15.980469 11.925781 L 15.980469 9.9257812 L 11.980469 9.9257812 L 11.980469 5.9257812 L 9.9804688 5.9257812 z M 2.2304688 6.25 C 2.0809688 6.808274 2.0000001 7.3945196 2 8 C 2 8.6055181 2.080969 9.1917637 2.2304688 9.75 L 4.4804688 9.75 L 4.4804688 9.7246094 L 5.4550781 9.1328125 L 5.4550781 9.1308594 L 5.7929688 8.9257812 L 5.8339844 8.9257812 L 5.9804688 8.8378906 L 5.9804688 8.8125 L 6.1425781 8.7148438 L 6.296875 8.6210938 L 7.4394531 7.9257812 L 7.4804688 7.9257812 L 7.4804688 6.25 L 2.2304688 6.25 z M 2.703125 11 C 3.6261488 12.856504 5.3835937 14.214075 7.4804688 14.615234 L 7.4804688 13.925781 L 7.46875 13.925781 C 7.46875 13.925781 6.7368261 13.60221 5.9804688 13.001953 L 5.9804688 12.994141 C 5.9523107 12.971696 5.9246662 12.949024 5.8964844 12.925781 L 5.8847656 12.925781 C 5.3105061 12.452161 4.7416771 11.822098 4.4804688 11.027344 L 4.4804688 11 L 4.46875 11 L 2.703125 11 z "
       transform="matrix(0.26458333,0,0,0.26458333,0.005193,292.78607)"
       id="path841" />
  </g>
</svg>
